# xmcd
#
# Track frame offsets:
#       150
#       19487
#       37662
#       55596
#       73604
#       94122
#       108426
#       123962
#       136044
#       152836
#       189055
#       205717
#
# Disc length: 2848 seconds
#
# Revision: 1
# Processed by: cddbd v1.5.2PL0 Copyright (c) Steve Scherf et al.
# Submitted via: FreeDbEdit v0.1
#
DISCID=900b1e0c
DTITLE=Janis Joplin - Janis Joplin's Greatest Hits
DYEAR=1973
DGENRE=Psychadelic Blues
TTITLE0=Piece of My Heart
TTITLE1=Summertime
TTITLE2=Try (Just a Little Bit Harder)
TTITLE3=Cry Baby
TTITLE4=Me and Bobby McGee
TTITLE5=Down on Me
TTITLE6=Get It While You Can
TTITLE7=Bye, Bye Baby
TTITLE8=Move Over
TTITLE9=Ball and Chain
TTITLE10=Maybe
TTITLE11=Mercedez Benz
EXTD=
EXTT0=
EXTT1=
EXTT2=
EXTT3=
EXTT4=
EXTT5=
EXTT6=
EXTT7=
EXTT8=
EXTT9=
EXTT10=
EXTT11=
PLAYORDER=
